<svg xmlns="http://www.w3.org/2000/svg" version="1.1" width="600px" height="600px" viewBox="0 0 200 200" style="overflow:hidden!important;"><g id="svga-group-wrapper"><g id="svga-group-backs-single"><path id="SvgjsPath4835" d="M0 0h200v200H0V0z" fill="#ecf0f1" stroke-width="none" opacity="1"></path></g><g id="svga-group-humanwrap-move" transform="matrix(1,0,0,1,0,-4)"><g id="svga-group-humanwrap" transform="matrix(0.8499995000000001,0,0,0.8499995000000001,14.978487542566285,18.03619569860743)"><g id="svga-group-hair-back-move" transform="matrix(0.9986295346632303,0.05233595798588117,-0.05233595798588117,0.9986295346632303,7.464080651700328,-5.041730651440361)"><g id="svga-group-hair-back"><path id="SvgjsPath10246" d="M140.4 90.8s1.1 10.6-7.4 32.3-12.6 27.9-27.2 36-16 15.2-23.7 27.7c-6.9 11.2-21.5 17.6-21.5 17.6s1.8-6-6.7-23.1-6.7-25.9-.7-39.7 39.4-73.4 49.3-77.7 33-2.9 37.9 26.9z" fill="#000000" stroke-width="none" opacity="1"></path><path id="SvgjsPath10247" d="M132.6 105.5c-2.5 21.2-15.4 37.9-33.9 48.5-14.9 8.5-35 18.3-35.5 37.6.1 0 .2-.1.3-.1.3-.1.6-.2.8-.3-.2.1-.4.2-.6.2.2-.1.5-.1.7-.2.9-23.2 29.9-31 45.5-43 13.5-10.4 22-26.1 23.9-42.9-.4.1-.8.1-1.2.2zm-7.3 16.7c-6.9 23.9-35.6 27.1-53 40.3-6.3 4.8-11.7 12.1-13.7 19.8.4-15.3 13.9-27.4 26.2-35.6 13.1-8.7 27.4-16.4 35-30.7.4-.7-.7-1.3-1.1-.6-9.3 17.4-28.2 24.6-43 36.3-8.1 6.4-15.2 15.1-17.6 24.9.1-5.3 1.1-10.7 3.2-15.8 4.4-10.9 12.6-18.4 22.3-24.5 7.8-4.9 16-9.1 22.8-15.4 4.8-4.4 8.7-9.6 11.7-15.3-.5 0-1 .1-1.5.1-4.5 8.1-10.8 14.9-18.5 20.2-8.4 5.8-17.9 10.1-25.6 17-11.7 10.3-16.9 25.3-15.2 40-2.1-6.8-2.7-14-.8-21.1 2.8-10.3 10.1-18.7 17.5-26 8.7-8.7 18.9-17.6 24.4-28.6-.4 0-.9.1-1.3.1-7.3 14.4-22.9 24.9-32.8 37.4-5.2 6.6-9.2 14.2-10.1 22.7-.7 7 .8 13.9 3.4 20.3 0 .2.1.3.1.5 0 1.9.2 3.8.8 5.7.8-.6 1.8-1.1 2.8-1.5-.5-1-1-2-1.5-3.1-.2-.9-.5-1.8-.7-2.7.2-4.6 1.8-9.3 4.4-13.3 5.8-8.8 15.3-14.1 24.6-18.6 15.2-7.3 33.2-14.4 38.3-32.2.3-.8-.9-1.1-1.1-.3zm-66.6 25.7c6.6-8.3 15.5-15 17.6-26 .2-.8-1.1-1.1-1.2-.3-2.6 13.4-15.5 20.3-21.6 31.9-4.9 9.5-5.6 20.5-2.2 30.6.2.8 1.5.4 1.2-.3-4.1-12.4-1.9-25.7 6.2-35.9zm29.4 18c-7.9 4-13.5 11.2-15.6 19.8-.2.8 1 1.1 1.2.3 2-8.4 7.3-15.2 15-19.1.7-.3.1-1.4-.6-1z" fill="#ffffff" stroke-width="none" opacity="1"></path></g></g><g id="svga-group-humanbody-back"><path id="SvgjsPath4898" d="M86.5 107c0 18.8 2.7 50.3-8.1 58s-31.8 13.9-36.7 24.4-3.6 29.4-3.6 29.4h124.1s.6-23.1-4.2-30.4c-6.6-10.1-28.5-17.7-36.5-22.9-8.1-5.2-10.9-32.2-10.9-58.8l-24.1.3z" fill="#ffffff" stroke-width="none" opacity="1"></path></g><g id="svga-group-chinshadow-single"></g><g id="svga-group-humanbody-front"><path id="SvgjsPath4899" d="M163.4 220.1H37.2l-.3-.9c-.1-.5-1.3-19.7 3.6-30.3 3.4-7.3 13.6-12.4 23.5-17.4 5.1-2.5 9.9-5 13.6-7.5 8.6-6 8.1-29.8 7.7-47.1-.1-3.5-.1-6.8-.1-9.8v-1.3l26.7-.4v1.3c0 32 3.8 53.5 10.3 57.7 2.4 1.6 6 3.3 10.2 5.4 9.7 4.7 21.9 10.6 26.7 18 5 7.6 4.4 30.9 4.4 31.2l-.1 1.1zm-124.1-2.6h121.6c-.1-2.4-.6-23.2-4-28.4-4.4-6.7-16.2-12.5-25.6-17-4.3-2.1-8-3.9-10.5-5.5-9.8-6.3-11.4-38.8-11.5-58.6l-21.5.4c0 2.6.1 5.5.1 8.5.4 18.9.9 42.4-8.8 49.3-3.8 2.7-8.7 5.1-13.9 7.7-9.5 4.8-19.4 9.7-22.3 16.1-3.3 6.9-3.7 25.9-3.6 27.5z" fill="#000000" stroke-width="none" opacity="1"></path><path id="SvgjsPath4900" d="M76.8 173.7c4.8 2.3 10.4 3.9 15.7 2.9.4-.1.4-.7 0-.8-5.1-.9-10.2-1.4-15.2-3.2-.6-.2-1.1.8-.5 1.1zm31.5 2.4c2.4.3 4.9-.4 7.1-1.2 2.1-.8 4.3-1.7 5.8-3.4.5-.5-.1-1.2-.7-.9-2.1.9-3.9 2.3-6.1 3-2 .7-4.1 1-6.2 1.5-.6.1-.4.9.1 1z" fill="#000000" stroke-width="none" opacity="1"></path></g><g id="svga-group-clothes-single"><path id="SvgjsPath10548" d="M85.2 148.9s-6.4 0-8.1 1.6-6.3 1.9-8.1 7.7c0 0-4.8 5.8-4.5 9l-4.7 5.1s-8.5 3.1-11 4.5c-2.4 1.4-5.6 5.1-5.6 5.1s-4.3 2.7-5.3 5.3c-.9 2.3-2.9 8.9-2 15.4.1.7.2 16.4.4 17.1H164c0-.7.5-.7-.1-16.7-.1-3.3-.5-10.5-1.1-12.6-.8-2.7-5.8-9.3-8.1-9.8 0 0-7.1-6.3-9-7.1s-6.9-2.4-6.9-2.4-5-3.4-6.8-6.9c-.3-.6-4.8-7.9-6.1-8.7 0 0-.5-2.1-3.7-4.5s-8.4-2.9-8.4-2.9.6 2.4 1.3 6.4c.6 4 1 6.6-.2 9.3-1.1 2.7-4.8 5.5-7.6 8.5s-4.5 4.5-6 8.1c0 0-6.3-6.1-10.9-8.4s-6.4-4.2-7.2-7.2c-.6-2.9 2-15.9 2-15.9z" fill="#ffffff" stroke-width="none" opacity="1"></path><path id="SvgjsPath10549" d="M165 203.1c-.1-3.4-.5-10.6-1.1-12.8-.8-2.7-5.6-9.4-8.5-10.4-1.3-1.1-7.2-6.3-9.1-7.1-1.8-.7-6-2.1-6.9-2.4-.7-.5-4.9-3.5-6.3-6.5-.1-.3-4.3-7.2-6.2-8.8-.3-.8-1.2-2.7-4-4.7-3.4-2.6-8.7-3.1-8.9-3.1-.3 0-.6.1-.9.4-.2.2-.3.6-.2.9 0 0 .6 2.4 1.3 6.3.6 3.8.9 6.3-.1 8.8-.7 1.6-2.5 3.4-4.4 5.2-1 1-2.1 2-3 3-.5.6-1 1.1-1.4 1.6-1.7 1.8-3 3.2-4.1 5.5-2-1.9-6.5-5.8-10.2-7.6-4.8-2.3-6.1-4.1-6.7-6.6-.5-1.8.5-8.6 1.4-13.7.4-.2.6-.7.4-1.2 0-.1-.1-.2-.1-.2 0-.2.1-.4.1-.5.1-.3 0-.6-.2-.8s-.5-.4-.8-.4c-1.1 0-6.9.1-8.7 1.9-.3.4-1 .7-1.8 1.1-2 1-5.1 2.5-6.5 6.9-.9 1.1-4.6 5.8-4.6 9.1l-4.2 4.7c-1.4.5-8.6 3.1-10.9 4.5-2.3 1.4-5.2 4.6-5.8 5.2-.8.5-4.6 3.1-5.6 5.7-.8 2.1-3 8.9-2.1 15.9.1.7.2 16.5.4 17.2.1.4.5.8 1 .8h127.6c.3 0 .5-.1.7-.3s.3-.5.3-.7c.2-.3.1-15.9.1-16.9zm-2 14c-3.6-2.6-7.8-4.2-11.5-6.8v-4.4c3.2 2.9 6.8 6.3 10.9 7.4.1 0 .2-.2.1-.2-4-2.2-7.4-4.9-11-7.7v-3.1c.4.4 5.7 5 11.4 7.1.1 2.8.1 5.8.1 7.7zm0-8.2c-6.1-2.6-9.4-5.8-9.6-5.9-.7-.5-1.3-1.1-1.8-1.7 0-1.2.1-2.3.1-3.3 1.7 2.2 8.6 7.4 11.3 8.9v2zm-4.8-19.1c-1.4-1.5-3-2.9-4.4-4.4.6-1.7 1.1-2.8 1.4-3.4 2 1.3 6 6.4 6.7 8.8.5 1.8.9 8.3 1 12.2v3.5c-3.1-1.9-9.2-6.7-11.3-9.1.1-1.6.2-3.1.4-4.4 2.8 3.8 6.4 7.2 10.5 9.4.2.1.4-.2.2-.3-4-2.8-7.5-5.8-10.6-9.5h-.1c.2-1.4.4-2.6.7-3.7 2.2 3.2 5.1 6.4 8.6 8.2.2.1.4-.2.2-.3-3.3-2.5-6.2-4.9-8.5-8.4 0-.1-.1-.1-.1-.1.2-.9.4-1.7.7-2.4 1.3 1.5 2.7 3.1 4.4 4.2.2.1.4-.1.2-.3zm-27.1-25.5c.1.2.2.3.2.4.2.4.4.8.7 1.1-.2.2-.6.7-1.2 1.3.1-.9.2-1.9.3-2.8zm-3.3-4.9c1.1 1.5 2.2 3.3 2.9 4.4-.2 1.3-.5 2.7-.6 4-.2.2-.5.5-.8.7.3-1.7.6-3.5.9-5.2 0-.2-.3-.3-.3-.1-.4 1.9-.9 3.9-1.2 5.9-.3.2-.5.5-.8.7.3-1.5.4-3.1.6-4.5 0-.2-.3-.3-.3-.1-.3 1.7-.8 3.4-.9 5.1-.4.3-.8.6-1.1.9.2-1.3.5-2.5.9-3.8.1-.2-.2-.3-.3-.1-.6 1.3-1.1 2.9-1.2 4.4l-.9.6c0-.2.1-.4.1-.6l.3-2.1c0-.2-.3-.3-.3-.1-.2.7-.3 1.5-.4 2.2-.1.3-.1.6-.2 1-.2.1-.4.3-.7.4.2-.8.2-1.6.3-2.4 0-.2-.2-.2-.3-.1-.2.9-.5 1.8-.7 2.8-.2.1-.4.2-.5.3 0-.2 0-.3.1-.5.1-.6.2-1.1.2-1.7 0-.2-.2-.2-.3 0l-.3 1.8c-.1.2-.1.5-.2.8-.2.1-.5.3-.8.4.1-.5.2-1 .4-1.5.1-.2-.2-.3-.3-.1-.2.6-.4 1.2-.6 1.9-.3.1-.6.3-.9.4-.2.1-.3.2-.4.3.1-.3.2-.7.3-1 .1-.2-.2-.3-.3-.1-.2.6-.4 1.1-.5 1.7 0 .1.2.2.3.1 0 0 0-.1.1-.1 0 .1 0 .3.1.4.2.4.5.6.9.6.1 0 .2 0 .4-.1 6.4-2.6 11.5-7.9 13.1-9.6.7.8 1.5 1.6 2.2 2.2.3 1.3.2 2.6.4 3.9 0 .1.2.2.3 0 .3-1.1.1-2.4-.2-3.6.4.3.8.6 1.1.9.1.6.2 1.2.2 1.9-.8 1.1-2.2 2.1-3.9 3l.1-.1c.4-1.3.4-2.7.3-4 0-.2-.3-.2-.3 0 .1 1.4-.1 2.6-.4 4 0 .1.1.2.2.2-.7.4-1.4.7-2.2 1.1.2-1.1.4-2.2.6-3.2.1-.3-.4-.4-.4-.1-.3 1.1-.7 2.4-.9 3.6-.3.1-.6.2-.8.4l.6-2.1c.1-.2-.3-.4-.4-.1-.2.9-.6 1.7-.9 2.5-.4.2-.8.3-1.2.5.3-.8.5-1.7.6-2.4 0-.2-.3-.2-.3 0-.1.9-.4 1.6-.8 2.4-.1.1-.1.2-.2.3l-1.5.6-.3.1 1.2-3c.1-.2-.3-.3-.4-.1-.5 1.1-1 2.2-1.4 3.4-.4.2-.9.3-1.3.5.6-1 1-2.2 1.2-3.3 0-.2-.3-.3-.3-.1-.3 1.4-1 2.5-1.7 3.7l-.9.3c.5-.9.8-2 .9-2.8 0-.2-.2-.3-.3-.1-.1.8-.4 1.5-.8 2.1-.2.3-.4.6-.7 1l-.9.3c.5-.8.8-1.7 1.1-2.5.1-.2-.2-.3-.3-.1-.2.7-.5 1.3-.9 1.9-.2.3-.4.6-.7.9-.3.1-.6.2-1 .3.3-.5.5-1.1.8-1.6.1-.2-.2-.3-.2-.1-.4.6-.9 1.3-1.3 2-.2.1-.5.2-.8.3.1-.3.3-.6.4-.9.1-.2-.2-.3-.3-.1-.2.4-.5.8-.7 1.3l-.9.3c.1-.2.2-.4.4-.6.1-.2-.2-.4-.3-.2-.2.3-.5.6-.8 1-2.1.7-4.1 1.4-5.8 1.9-1.3-1-2.5-1.7-3.4-2.2 2.1-2.9 4.9-6.2 7.3-7.8.9-.6 1.9-1.3 3-1.9 4-2.6 8.6-5.4 10.8-9.8.8-1.4 1.2-2.8 1.3-4zm-16.9 30.4c2.8 2.9 3 5.5 2.5 6.3-.1.1-.2.4-.9.1-1.7-.6-3-3.8-4-6.1-.4-.9-.7-1.7-1.1-2.3.3-.1.6-.2 1-.3.8.7 1.6 1.4 2.5 2.3zm6.4-30.4c.8-.6 1.3-1.5 1.9-2.2.2-.2.3-.4.5-.6.1.4.1.9-.1 1.3l-1.5 1.5c-.5.5-1 1.1-1.4 1.6.1-1 0-2.1-.1-3.2.5-.6.8-1.3 1.2-1.9.3-.5.8-1 1.2-1.4l.6 1.5c-.3.4-.6.7-.9 1-.6.7-1.3 1.4-1.8 2.2 0 .2.3.3.4.2zm2.1-.6c-.7 1.6-1.8 2.9-2.8 3.9.1-.2.1-.5.2-.7.8-.7 1.3-1.6 2-2.4.1-.3.4-.5.6-.8zm-1.9-3.3c-.3.4-.7.9-.9 1.4-.1-.4-.1-.9-.2-1.4.5-.5.9-1.1 1.3-1.6.2-.2.4-.5.6-.8l.6.9c-.5.4-1 .9-1.4 1.5zm.5-2.8c-.3.3-.6.7-.8 1-.3.3-.6.7-.8 1v-.3c0-.3-.1-.5-.1-.8.2-.2.3-.5.4-.7.2-.4.5-.8.8-1.1.1.4.3.6.5.9zm-1.7-1.9.8.8c-.3.4-.5.8-.8 1.1-.1.1-.1.2-.2.3-.1-.5-.2-1-.3-1.4.1-.3.3-.5.5-.8zm-26.1 22.3c4.5 2.2 10.6 8.1 10.7 8.2.2.2.6.3.9.3.3-.1.6-.3.7-.6 1.1-2.7 2.4-4.1 4.3-6.2.5-.5.9-1 1.5-1.6.9-1 1.9-2 2.9-2.9 1.2-1.1 2.3-2.2 3.2-3.3.3 0 .6-.2.7-.4.1-.1.4-.3.6-.5 1.5-1.2 4.6-3.6 5.8-7.2 1.1-3.2-1.1-6.5-3-8.5 1.1.4 2.3.9 3.2 1.6 2.8 2.1 3.3 3.9 3.3 3.9v.1s0 .1.1.1c0 .1.1.1.1.2v.1c.1.1 1.7 2-.6 6.4-2 3.8-6.3 6.6-10.1 9-1.1.7-2.1 1.3-3.1 2-2.7 1.8-5.8 5.4-8.1 8.7-.2 0-.5.1-.7.3-.2-.1-.4-.1-.6-.1-.3.1-.6.1-.8.6-2.5-1.5-7.1-4-11.9-5.6-.6-.2-1.1-.4-1.7-.7h.1l1.8-2.4c.1-.1-.1-.3-.2-.2-.7.7-1.3 1.5-1.9 2.3-.1.1-.1.1 0 .2-1.2-.6-2.3-1.3-3.5-2.1.3-.8.7-1.6 1.3-2.3.4-.5.9-.9 1.4-1.2 1.1.5 2.2 1.1 3.6 1.8zm1.1 12.7.6.6c-.6 0-1.3-.1-1.9-.1-.2-.2-.3-.5-.4-.8-.1-.3-.5-.2-.4.1.1.2.1.4.3.6-.7-.1-1.5-.1-2.2-.2-.2-.2-.3-.5-.4-.7-.1-.2-.4-.1-.3.1l.3.6-2.7-.3c-.3-.4-.6-.9-.9-1.3-.1-.2-.4 0-.3.2.2.4.4.7.6 1.1-.8-.1-1.6-.2-2.3-.3-.2-.2-.4-.5-.5-.8-.3-.5-.4-1-.6-1.6-.1-.3-.6-.2-.5.1.1.7.4 1.4.8 2.1-.8-.1-1.5-.2-2.2-.4-.9-1.1-1.5-2.2-1.7-3.8 0-.3-.5-.3-.4 0 .1 1.2.5 2.5 1.2 3.6-.7-.1-1.3-.3-1.8-.5-.9-1.1-1.5-2.3-1.9-3.6.2-.1.4-.2.5-.4.3-.5.2-1.1-.3-1.4-.6-.4-1.1-.8-1.6-1.2 0-3.6.5-6.8 2.2-9.9.5.8 1.1 1.6 1.8 2.3-1.2 2.3-1.9 4.8-1.6 7.4 0 .2.3.2.3 0 .1-2.6.4-4.9 1.5-7.2.7.8 1.4 1.5 2.1 2.3-.2.8-.4 1.5-.5 2.3 0 .2.2.3.3.1.3-.6.4-1.3.6-2 3.1 3 6.7 5.4 9.8 6.5 4.4 1.5 8.7 3.7 11.2 5.2-.8.4-1.6 1-2.5 2-1.5-.1-3.2-.1-4.9-.2-.3-.3-.7-.6-1-.9-.2-.1-.5.2-.3.4zm-19.4-23.2c-2.6 2.2-4.4 5.3-4.6 8.7-.5-1-.9-1.8-1.2-2.6.5-3.3 3.5-7 5.5-9.1v.8c0 .8.1 1.5.3 2.2zm0 14.7c-.7-.6-1.2-1.2-1.8-1.8.4-3.6 1.2-6.7 3.1-9.8.3.6.6 1.1 1 1.7-1.8 2.9-2.8 6.4-2.3 9.9zm-2.2-2.3c-.8-1-1.5-2-2-2.9.4-3.5 1.7-6.6 4.4-9 .2.7.5 1.4.9 2.1-1.9 2.9-3.2 6.3-3.3 9.8zm-1.5 1.4c0 1.2.2 2.5.7 3.6l-2.7-2.4c-.3-1.6-.5-3.1-.4-4.7.7 1.1 1.4 2.3 2.4 3.5zm.5.5c.6.7 1.4 1.4 2.2 2.1.1 1.2.5 2.3 1.1 3.3-.8-.6-1.6-1.2-2.4-1.9-.5-1.1-.8-2.3-.9-3.5zm2.6 2.5c.4.4.9.7 1.4 1.1.1.1.2.1.4.1.3 1.2.8 2.3 1.5 3.3-.7-.3-1.3-.7-2-1.1-.5-1.1-1-2.2-1.3-3.4zm27.1 9.3c.6 0 1.2 0 1.8.1-.4 1.1-.8 2.3-1.1 3.4-.2.9-.2 1.7-.3 2.5-.1 1.8-.1 2.9-2.2 4-.7.4-1.2.4-1.3.3-.4-.4-.6-2.9 1.7-7.8.5-1.1.9-1.9 1.4-2.5zm-12.2-17.9c-1.2.8-2.1 2.2-2.7 3.6-1.4-1.1-2.8-2.3-4-3.6.9-.9 1.9-1.8 2.6-2.8.1-.2-.1-.3-.3-.2-.9.8-1.8 1.8-2.6 2.7-.8-.8-1.5-1.6-2.1-2.4 1.1-.9 2.3-1.7 3.4-2.5.2-.1.1-.4-.1-.3-1.3.5-2.5 1.4-3.6 2.5-.5-.6-.9-1.3-1.3-1.9 1.1-.7 2.2-1.4 3.2-2.2.1-.1 0-.3-.2-.2-1.1.6-2.1 1.4-3.2 2.1-.5-.8-.9-1.6-1.2-2.3 1.5-.8 3-1.4 4.6-2 0 0 .1 0 .1-.1 1.3 3.7 4.4 6.9 4.5 7.1.2.2.3.2.6.3.6.7 1.4 1.4 2.3 2.2zM82 155.1c.3.3.6.7.9.9-.1.3-.1.6-.1.9-.3-.2-.7-.4-1-.7-.4-.3-.7-.5-1.1-.8.2-.4.4-.8.6-1.1.3.3.5.5.7.8zm-.3-1.1c.2-.2.4-.5.6-.7.3.3.6.7.9 1-.1.3-.1.7-.2 1l-.6-.6c-.2-.3-.5-.5-.7-.7zm0 2.8c.3.3.7.6 1.1.8-.1.6-.1 1.1-.2 1.6-.3-.2-.6-.4-.9-.7-.5-.4-.9-.7-1.4-1v-.4l.3-1.2c.3.3.7.6 1.1.9zm0 4c-.4-.4-.8-.7-1.2-1.1l-.3-1.5c.4.3.7.6 1.1.9.4.3.7.6 1.1.9 0 .5-.1.9-.1 1.3-.2-.1-.4-.3-.6-.5zm.6 1.5v1.2c-.5-.8-1-1.6-1.3-2.5l.3.3c.3.3.6.7 1 1zm1.2-10c-.1.1-.1.2-.1.3-.1.3-.1.6-.2 1-.2-.2-.4-.4-.6-.7.4-.2.7-.5.9-.6zm0-2.4c-.3.1-.6.3-.9.5 0 0 0-.1-.1-.1l-.6-.3c.6 0 1.1-.1 1.6-.1zm-2.6.3c.5.2.9.4 1.4.5-.3.2-.7.5-1.1.9-.5-.5-1.2-.8-1.9-1.1.4-.1 1-.2 1.6-.3zm-3.1 1c.2-.2.4-.3.7-.4.3.1.7.2 1 .4.5.2.9.5 1.4.7-.3.3-.6.6-.8.9-.9-.4-1.9-.7-2.8-1 .3-.4.5-.6.5-.6zm-.8.9c.9.4 1.9.7 2.8 1-.3.4-.6.8-.8 1.3-1-.4-2.1-.6-3.2-.8.4-.6.8-1.1 1.2-1.5zm-1.4 1.9c1.1.2 2.1.6 3.2.9-.2.4-.3.7-.4 1.1-1.2-.2-2.4-.4-3.6-.5.3-.6.5-1.1.8-1.5zm-.9 1.8c1.2.2 2.5.4 3.7.6 0 .1-.1.3-.1.5-.1.4-.1.8-.1 1.1-1.5-.1-3 .2-4.4.6.2-1 .5-1.9.9-2.8zm-1 3.2c1.5-.4 3-.6 4.5-.8.1.9.2 1.8.5 2.6h-.1c-1.7.2-3.2 1-4.7 1.9-.3-.8-.4-1.6-.4-2.3.1-.4.2-.9.2-1.4zm-3.8-.2c.1-.1.2-.2.2-.4v-.1c.6-.6 1.1-1.3 1.7-1.9.1-.1-.1-.3-.2-.2l-1.2 1.2c.8-1.9 1.9-3 3-3.8-.8 1.5-1.5 3.3-1.7 5.3-2.1 2-3.8 4.4-5.1 7-.3.6-.6 1.2-.8 1.8-.2-.4-.2-.8-.3-.9-.1-1.8 2.6-5.9 4.4-8zm-4.4 13.5c-.3 1.6-.3 3.2.1 4.7-.8-.8-1.6-1.6-2.2-2.3 0-1.8.3-3.4.9-5 .4.8.7 1.7 1.2 2.6zm-1.4-3c-.8 1.6-1.2 3.3-1 5-.8-.8-1.3-1.5-1.8-1.9l2.8-3.1zm-20.9 14c.3.3.6.8 1.1 1.4-.5-.3-1.1-.6-1.6-1 .1-.1.3-.3.5-.4zm-4.2 4.4c.5-1.2 2-2.6 3.3-3.7.9.6 1.7 1.1 2.7 1.6.5.8 1.1 1.8 1.7 3-1.8-1.1-3.8-1.8-5.8-2.7-.3-.1-.5.3-.2.4 2 .9 4 2.1 6.1 2.8h.2c.4.9.9 1.9 1.3 3-3.1-1.3-6.1-2.6-9.1-4.1H39c-.1-.1-.1-.2 0-.3zm-2.2 10.9c3.3 2.2 6.9 3.9 10.8 4.6.2 0 .3-.3.1-.3-3.8-1.2-7.4-2.6-10.8-4.8 0-1.2.2-2.3.3-3.4 3.8 2.1 7.8 3.9 12.1 4.8.2.1.3-.3.1-.4-4.1-1.5-8.2-3-12.1-4.9.4-2.6 1.1-4.7 1.5-5.9 0 0 0 .1.1.1 3 1.8 6.1 3.4 9.5 4.4.3 1 .7 2.1.9 3.3-3.7-1.5-7.5-2.8-11-4.9-.2-.1-.4.2-.2.4 3.4 2.2 7.2 4.2 11.3 5 .4 1.9.6 3.9.7 6.1v3.9c-5.3-1.5-11.8-4.3-13.1-5-.2-1.2-.2-2.1-.2-3zm.4 20.3c0-.1 0-1.3-.1-3.1 1.7 1.2 3.6 2.4 5.6 3.1h-5.5zm12.8 0h-5.9c-2.4-1-4.7-2-6.9-3.5 0-2-.1-4.5-.1-6.8 3.4 2.9 8.5 5 12.9 6.2v4.1zm0-4.6c-4.3-2-9.1-3-12.9-6v-2.8c3.3 2.6 7.2 4.3 11.2 5.5.1 0 .1-.1.1-.1-3.8-1.8-7.8-3.2-11.2-5.6 0-1.9 0-3.2-.1-3.3 1 .6 6.2 3.1 13 5.1-.1 2.1-.1 4.9-.1 7.2zm99.2 4.6H52v-16.3c-.2-11.5-5.4-18.5-7.3-20.6 1-1.1 3.1-3.3 4.8-4.3 1.9-1.2 8.1-3.5 10.1-4.2 1.9 2.1 9.1 10.1 14.6 12.4 4 1.6 14.4 2.3 21.9 2.7-.3.5-.6 1-.9 1.6-1.1 2.4-3.5 8.1-1.3 10.1.3.3.8.6 1.6.6.6 0 1.2-.2 2.1-.6 3.1-1.7 3.2-3.8 3.3-5.7 0-.7.1-1.4.2-2.1.1-.4.2-.9.4-1.4.2 2.8.5 6.5 1 11.4.1.5.5.9 1 .9h.1c.6-.1 1-.5.9-1.1-.3-3.5-.6-7.1-.9-10.3 1.2 4.1 2.8 8.8 4.3 10.5.3.4 1 .5 1.4.1.4-.4.5-1 .1-1.4-1.6-1.9-3.5-8.4-4.7-12.7.2-.1.4-.1.8-.2.3.5.7 1.5 1.2 2.5 1.2 2.8 2.6 6.2 5.2 7.2.4.2.8.2 1.2.2.9 0 1.6-.4 2.1-1.1 1.1-1.7.5-5.4-2.8-8.8l-1.7-1.7c.4-.1.8-.3 1.3-.4v.1c-.1.1.1.2.2.1l.3-.3c4.5-1.5 9.8-3.3 13.2-4.6l.7-.3c6.2-2.5 12.1-4.8 13.5-8.8 1.6.5 4.5 1.5 5.8 2.1 1.2.5 5.4 3.9 8.1 6.4-1.2 2.1-4.1 8.5-4 21.6-.2.2-.5 13.1-.6 16.4zm2.3 0v-3.2c1.8 1.4 3.9 2.7 6.1 3.1.1 0 .3-.2.1-.3-2.1-1-4.2-1.8-6.2-3.1v-4.6c3.4 2.8 7.6 4.9 11.5 6.8v1.4l-11.5-.1zm-102.3-1.2c.2 0 .2-.2.1-.2-4.2-1.7-8.1-3.2-11.9-5.7-.1-.1-.2.1-.1.2 3.3 2.6 7.6 5 11.9 5.7zm85.3-42.8c.6-1.4.7-3 .6-4.5 0-.2-.3-.2-.3 0 .1 1.5-.1 3-.4 4.5-.1 0 .1.1.1 0z" fill="#000000" stroke-width="none" opacity="1"></path></g><g id="svga-group-head" transform="matrix(0.9986295346632303,0.05233595798588117,-0.05233595798588117,0.9986295346632303,7.464080651700328,-5.041730651440361)"><g id="svga-group-ears-left-move" transform="matrix(1,0,0,1,0,0)"><g id="svga-group-ears-left"><path id="SvgjsPath5793" d="M63.9 77.8s-2.5-2.4-5.4-3.5c-2.9-1.1-6.1.7-7.1 3.7-1 2.9 1.3 15.1 5 19.5s6.2 4.8 8.7 2.5c2.6-2.4 7-10.8-1.2-22.2z" fill="#ffffff" stroke-width="none" opacity="1"></path><path id="SvgjsPath5794" d="M61.8 102.3c-1.9-.1-3.8-1.5-6.1-4.2-3.9-4.7-6.3-17.1-5.2-20.5.6-1.8 1.9-3.3 3.6-4.1 1.5-.7 3.2-.8 4.8-.2 3.1 1.2 5.6 3.6 5.7 3.7l.1.1c8.7 12.2 3.5 21.2 1.1 23.5-1.2 1.1-2.4 1.6-3.7 1.6-.1.1-.2.1-.3.1zm-3.6-27.1c-1.3-.5-2.5-.2-3.2.1-1.2.6-2.1 1.6-2.6 2.9-.8 2.5 1.3 14.3 4.9 18.5 1.9 2.3 3.4 3.4 4.7 3.5.8.1 1.6-.3 2.5-1.1 2.1-1.9 6.5-9.8-1.3-20.7-.4-.3-2.6-2.2-5-3.2z" fill="#000000" stroke-width="none" opacity="1"></path><path id="SvgjsPath5795" d="M55.2 77.4c3.3.6 5.4 6.1 6 9.8.1.1.1.2.2.3.4.6-.4 1.2-.8.6-.5-.8-1-1.6-1.8-1.9-1.4-.5-2.1 1.1-1.8 2.6.4 1.9 1.6 3 2.6 4.4.1.1 0 .3-.1.2-1.7-1-4.3-4.8-3.1-7.2.9-1.7 2.3-1.4 3.4-.4-.8-2.1-1.4-4.3-3-5.9-.5-.5-1.5-1.4-2.2-1.3-1.3.2-1.3 2.1-1.3 3.4-.1 1.7.1 3.4.4 5 0 .2-.2.2-.3.1-.6-2.4-2-10.4 1.8-9.7z" fill="#000000" stroke-width="none" opacity="1"></path></g></g><g id="svga-group-ears-right-move" transform="matrix(1,0,0,1,0,0)"><g id="svga-group-ears-right"><path id="SvgjsPath5796" d="M136.1 77.8s2.5-2.4 5.4-3.5c2.9-1.1 6.1.7 7.1 3.7 1 2.9-1.3 15.1-5 19.5s-6.2 4.8-8.7 2.5c-2.6-2.4-7-10.8 1.2-22.2z" fill="#ffffff" stroke-width="none" opacity="1"></path><path id="SvgjsPath5797" d="M137.9 102.3c-1.3 0-2.5-.5-3.7-1.6-2.5-2.2-7.6-11.3 1.1-23.5l.1-.1c.1-.1 2.7-2.5 5.7-3.7 1.5-.6 3.2-.5 4.8.2 1.7.8 3 2.3 3.6 4.1 1.1 3.3-1.3 15.8-5.2 20.5-2.3 2.7-4.2 4.1-6.1 4.2-.1-.1-.2-.1-.3-.1zm-1.1-23.9c-7.8 10.9-3.4 18.8-1.3 20.7.9.8 1.7 1.2 2.5 1.1 1.3-.1 2.8-1.2 4.7-3.5 3.5-4.2 5.7-16.1 4.9-18.5-.4-1.3-1.4-2.4-2.6-2.9-.7-.3-1.9-.6-3.2-.1-2.4 1-4.6 2.9-5 3.2z" fill="#000000" stroke-width="none" opacity="1"></path><path id="SvgjsPath5798" d="M144.8 77.4c-3.3.6-5.4 6.1-6 9.8-.1.1-.1.2-.2.3-.4.6.4 1.2.8.6.5-.8 1-1.6 1.8-1.9 1.4-.5 2.1 1.1 1.8 2.6-.4 1.9-1.6 3-2.6 4.4-.1.1 0 .3.1.2 1.7-1 4.3-4.8 3.1-7.2-.9-1.7-2.3-1.4-3.4-.4.8-2.1 1.4-4.3 3-5.9.5-.5 1.5-1.4 2.2-1.3 1.3.2 1.3 2.1 1.3 3.4.1 1.7-.1 3.4-.4 5 0 .2.2.2.3.1.6-2.4 2-10.4-1.8-9.7z" fill="#000000" stroke-width="none" opacity="1"></path></g></g><g id="svga-group-faceshape-wrap"><g id="svga-group-faceshape-single"><path id="SvgjsPath4882" d="M138.2 58.2c-2-10.8-13.3-27.4-37.2-27.4S69.1 43.5 65.5 53c-3 8.1-3 21.3-3 21.3s3 33.8 5.2 39.8c2.1 5.9 18.2 24.2 20.8 25.9 2.5 1.7 17.4 3 19.1 2.5 1.7-.4 26.3-26.3 27.6-29.7 1.3-3.4 4.4-32.9 4.3-38.5-.1 0 .1-8.4-1.3-16.1z" fill="#ffffff" stroke-width="none" opacity="1"></path><path id="SvgjsPath4883" d="M106.3 143.9c-4.4 0-16.1-1.1-18.6-2.8-2.8-1.8-19.1-20.3-21.3-26.5-2.2-6-5.1-38.7-5.2-40.1v-.1c0-.6 0-13.6 3.1-21.8 5.8-15.5 17.8-23 36.7-23 10.9 0 20.5 3.4 27.7 10 5.5 5 9.6 11.9 10.8 18.5 1.4 7.6 1.2 15.7 1.2 16.4.1 6-3.1 35.4-4.4 38.9-.9 2.4-10 12.3-13.9 16.4-3.3 3.5-6.6 6.9-9.1 9.4-4.5 4.4-5 4.6-5.4 4.7h-1.6zM63.8 74.3c.1 1.6 3.1 33.8 5.1 39.4s18 23.7 20.3 25.2c2.1 1.4 15.8 2.7 18 2.4 2.6-1.7 25.7-26 26.8-28.9 1.2-3.1 4.3-32.6 4.2-38 0-.1.2-8.4-1.2-15.9-1.1-6-4.8-12.4-10-17-6.7-6.1-15.7-9.3-26-9.3-17.7 0-28.9 7-34.3 21.3-2.8 7.5-2.9 19.9-2.9 20.8z" fill="#000000" stroke-width="none" opacity="1"></path></g></g><g id="svga-group-mouth-single-move" transform="matrix(1,0,0,1,0,0)"><g id="svga-group-mouth-single"><path id="SvgjsPath5420" d="M114.77 119.83c-1.13.44-2.28.54-3.44.5-1.86-.99-3.84-2.01-5.96-2.23-2.25-.23-4.37 1.18-6.55.6-1.62-.43-2.83-1.07-4.53-.62-2.55.67-4.74 2.91-7.53 1.8-.08-.03-.14-.02-.19.01-.21-.08-.41-.16-.62-.26-.33-.16-.61.33-.29.49.82.41 1.64.6 2.47.68.01.01 0 .02.02.03 6.71 6.02 16.81 5.73 23.65.07 1.04.01 2.08-.11 3.11-.52.35-.13.2-.68-.14-.55zm-16.76-.81c1.63.54 2.65.39 4.28-.03 2.77-.72 5.16.06 7.55 1.23-2.67-.3-5.34-.96-7.92.34-1.04.52-1.2.66-2.56.65-1.39-.01-1.47-.19-2.53-.68-.69-.31-1.37-.49-2.12-.57-1.26-.13-2.5.04-3.73.18 2.54-1.04 4.18-2.06 7.03-1.12zm-8.95 1.81c1.16 0 2.34-.18 3.57-.28 1.98-.16 3.32.32 5.07 1.13.7.32 1.27.57 2.06.48 1.3-.16 2.36-1.22 3.58-1.61 1.62-.53 3.37-.25 5.01-.01.87.13 1.73.26 2.58.32-6.42 4.96-15.56 5.2-21.87-.03z" fill="#000000" stroke-width="none" opacity="1"></path></g></g><g id="svga-group-eyes-left-move" transform="matrix(1,0,0,1,0,0)"><g id="svga-group-eyes-left"><g id="svga-group-eyesback-left"></g><g id="svga-group-eyesiriswrapper-left"><g id="svga-group-eyesiriscontrol-left" transform="matrix(1,0,0,1,0,0)"><g id="svga-group-eyesiris-left"><path id="SvgjsPath7042" d="M84.8 84.7c-1-1.9-3.2-2.7-5.2-2-2.2.8-3.8 3-3.1 5.4.4 1.2 1.5 2.4 2.8 2.7.4.1.9.1 1.4.1.5.1 1.1 0 1.7-.2 2.4-.9 3.6-3.7 2.4-6z" fill="#ffffff" stroke-width="none" opacity="1"></path><path id="SvgjsPath7043" d="M81.1 91.2h-.4c-.5 0-1 0-1.5-.1-1.3-.3-2.5-1.4-3-2.9-.9-2.6 1-4.9 3.2-5.7 2.2-.8 4.6.1 5.6 2.1.6 1.2.7 2.6.2 3.8-.5 1.2-1.5 2.2-2.7 2.6-.4.1-.9.2-1.4.2zm-.3-.6c.5.1 1.1 0 1.6-.2 1.1-.4 1.9-1.2 2.4-2.3.4-1.1.4-2.3-.2-3.3-.9-1.7-3-2.5-4.9-1.8-2 .7-3.6 2.8-2.9 5 .4 1.2 1.5 2.3 2.6 2.5.4.1.9.1 1.4.1zm2.4-4.8c0-.1 0-.1-.1-.1-.6-1.1-2-1.5-3.1-1 .2.2.4.5.6.7.2.3.5 1 .1 1.2-.4.2-1 0-1.3-.2-.2-.1-.3-.3-.5-.5 0 .1-.1.1-.1.2-.1.2-.1.4-.1.6-.2.7 0 1.4.5 1.9.2.2.5.3.8.4.6.3 1.2.4 1.8.1-.1-.1-.2-.2-.2-.4 0-.3.2-.6.5-.7.3-.1.6 0 .7.2.3-.3.5-.7.6-1.1.1-.4 0-.9-.2-1.3zm-4.8 1.1c-.4-.1-.9-.1-1.3-.2-.1 0-.1.1 0 .1.4.1.9.3 1.3.2.1 0 .1-.1 0-.1zm-.1.8c-.2 0-.4.1-.6.1-.2 0-.5.1-.7.1-.1 0-.1.1 0 .1.4 0 1 0 1.3-.3.1.1.1 0 0 0zm.4.8c-.2.1-.3.2-.5.3-.2.1-.4.2-.5.3-.1 0 0 .2.1.1.3 0 .7-.3.9-.7.1.1.1 0 0 0zm.9.7c-.3.3-.4.6-.6.9-.1.1.1.2.1.1.2-.3.5-.6.6-1h-.1zm.8.4c-.1.3-.1.7-.2 1.1 0 .1.1.1.1 0 0-.4.1-.7.1-1.1.1-.1 0-.1 0 0zm1.4.4c-.1-.1-.1-.3-.2-.4 0 0-.1 0-.1.1 0 .2.1.3.2.4.1.2.1.3.2.5 0 .1.1 0 .1 0-.1-.2-.1-.4-.2-.6zm1.3-.2-.3-.3-.3-.3c0-.1-.1 0-.1.1.1.1.2.2.3.4.1 0 .2.2.4.1 0 .1 0 .1 0 0zm.9-.7c-.1-.1-.3-.2-.5-.3-.2-.1-.3-.2-.5-.3-.1 0-.2.1-.1.1.2.1.3.2.5.3.2.1.3.2.5.2.1.1.2.1.1 0zm.5-1.3c-.1-.1-.3-.1-.4-.1-.2 0-.3-.1-.5-.1-.1 0-.1.1-.1.1.3.1.7.3 1 .2.1.1.1 0 0-.1zm.2-1.7c-.3.1-.8.3-1 .5-.1.1 0 .1.1.1.2-.1.3-.2.5-.2.2-.1.3-.1.5-.2.1-.1 0-.2-.1-.2zm-.8-2-.1-.1s-.1 0-.1.1c0 0-.4.4-.4.5-.1.2-.2.3-.4.5-.1.1.1.1.1.1l.9-.9c.1-.1.1-.1 0-.2zm-1.9-.8c-.1.1-.1.3-.2.5s-.1.4-.2.6c0 .1.1.1.1 0 .1-.2.2-.3.2-.5.1-.2.2-.4.1-.5.2-.1.1-.1 0-.1zm-1.3.8c-.1-.2-.1-.3-.2-.5 0-.2-.1-.3-.1-.4 0-.1-.1 0-.1 0 0 .3.2.7.3 1 0 .1.2 0 .1-.1zm-1.2 0c-.1-.2-.2-.3-.3-.5 0-.1-.1 0-.1 0 .1.2.1.3.2.5.1.1.2.3.3.4.1 0 .1 0 .1-.1 0 0-.1-.2-.2-.3zm-.6.9-.3-.3c-.1-.1-.2-.2-.4-.3-.1-.1-.2 0-.1.1l.3.3c.2.1.3.3.5.2 0 .2 0 .1 0 0zm-.8.8-.9-.3c-.1 0-.1.1 0 .1.3.1.6.3.9.3 0 0 .1-.1 0-.1z" fill="#000000" stroke-width="none" opacity="1"></path></g></g></g><g id="svga-group-eyesfront-left"><path id="SvgjsPath6644" d="M81 74.4c-6.9 0-12.5 5.6-12.5 12.5S74.1 99.4 81 99.4s12.5-5.6 12.5-12.5S87.9 74.4 81 74.4zm6.5 16c-.9.6-3.7 2-7.2 2-3.5-.1-9.8-2.3-10.4-3.1s1.8-2.9 2.8-3.6 3.7-2.9 6.9-3c3.2-.1 5.5.7 7.5 1.9s3.3 3.3 3.3 3.3-2.1 1.9-2.9 2.5z" fill="#ffffff" stroke-width="none" opacity="1"></path><path id="SvgjsPath6645" d="M66.7 88.5c.6.2 1.2.3 1.7.3.3 0 .6 0 .9-.1-.1.4.1.6.2.7.2.2.5.4.9.6-.6.2-1.3.4-1.8.7-.2.1-.3.4-.2.6.1.1.2.2.4.2.1 0 .1 0 .2-.1.8-.5 2.4-.9 2.4-.9.1 0 .1 0 .2-.1.3.1.6.3.9.4-.4.2-1 .5-1.3.8-.2.2-.2.4 0 .6.1.1.2.1.3.1.1 0 .2 0 .3-.1.6-.5 1.7-.9 1.7-1 .1 0 .1-.1.1-.1.2.1.5.2.7.2-.2.1-.4.3-.4.5-.1.2 0 .5.2.6h.2c.2 0 .3-.1.4-.2.1-.2.5-.4.8-.5 1.8.5 3.8.9 5.6.9h.3c5.1-.1 8.6-3.9 8.8-4 .2-.2.1-.4 0-.6-.2-.2-.4-.2-.6 0 0 0-3.5 3.7-8.2 3.8-4.9.2-10.4-2.3-11.3-3 .2-.9 4.3-4.9 7.3-5.5 3-.7 9.7-.4 12.9 5.1.1.2.4.3.6.2.2-.1.3-.4.2-.6-3.4-6-10.5-6.3-13.8-5.6-1.2.3-2.5 1-3.8 1.9-.2 0-.5-.1-.7-.1 2.8-2 6.2-2.9 9.7-2.6 4.7.5 8.1 3.8 8.1 3.8.1.1.2.1.3 0 .1-.1.1-.2 0-.3 0 0-3.5-3.5-8.4-3.9-3.8-.4-7.4.7-10.4 2.9-1-.2-1.9-.4-2-.5-.2-.2-.4-.1-.6 0-.2.2-.1.4 0 .6.3.2 1 .4 1.7.6-.4.4-.8.7-1.2 1.2-.6 0-1.4 0-2-.3-.2-.1-.5 0-.6.2s0 .5.2.6c.5.2 1.1.3 1.7.4 0 .1 0 .1.1.2h.1c.1 0 .1 0 .2-.1 0-.1.1-.1.1-.2h.6c-.3.3-.6.6-.8.9h-.1s-1.3.4-2.7-.1c-.2-.1-.5 0-.5.3.1.3.2.5.4.6zm5.8-3.4c-.3.2-.6.5-.9.7l-.8.2c.3-.3.7-.7 1.1-1 .1 0 .4 0 .6.1z" fill="#000000" stroke-width="none" opacity="1"></path></g></g></g><g id="svga-group-eyes-right-move" transform="matrix(1,0,0,1,0,0)"><g id="svga-group-eyes-right"><g id="svga-group-eyesback-right"></g><g id="svga-group-eyesiriswrapper-right"><g id="svga-group-eyesiriscontrol-right" transform="matrix(1,0,0,1,0,0)"><g id="svga-group-eyesiris-right"><path id="SvgjsPath7044" d="M123.2 84.7c-1-1.9-3.2-2.7-5.2-2-2.2.8-3.8 3-3.1 5.4.4 1.2 1.5 2.4 2.8 2.7.4.1.9.1 1.4.1.5.1 1.1 0 1.7-.2 2.5-.9 3.6-3.7 2.4-6z" fill="#ffffff" stroke-width="none" opacity="1"></path><path id="SvgjsPath7045" d="M119.6 91.2h-.4c-.5 0-1 0-1.5-.1-1.3-.3-2.5-1.4-3-2.9-.9-2.6 1-4.9 3.2-5.7 2.2-.8 4.6.1 5.6 2.1.6 1.2.7 2.6.2 3.8-.5 1.2-1.5 2.2-2.7 2.6-.5.1-.9.2-1.4.2zm-.4-.6c.5.1 1.1 0 1.6-.2 1.1-.4 1.9-1.2 2.4-2.3.4-1.1.4-2.3-.2-3.3-.9-1.7-3-2.5-4.9-1.8-2 .7-3.6 2.8-2.9 5 .4 1.2 1.5 2.3 2.6 2.5.5.1 1 .1 1.4.1zm2.4-4.8c0-.1 0-.1-.1-.1-.6-1.1-2-1.5-3.1-1 .2.2.4.5.6.7.2.3.5 1 .1 1.2-.4.2-1 0-1.3-.2-.2-.1-.3-.3-.5-.5 0 .1-.1.1-.1.2-.1.2-.1.4-.1.6-.2.7 0 1.4.5 1.9.2.2.5.3.8.4.6.3 1.2.4 1.8.1-.1-.1-.2-.2-.2-.4 0-.3.2-.6.5-.7.3-.1.6 0 .7.2.3-.3.5-.7.6-1.1.2-.4.1-.9-.2-1.3zm-4.7 1.1c-.4-.1-.9-.1-1.3-.2-.1 0-.1.1 0 .1.4.1.9.3 1.3.2v-.1zm-.1.8c-.2 0-.4.1-.6.1-.2 0-.5.1-.7.1-.1 0-.1.1 0 .1.4 0 1 0 1.3-.3.1.1 0 0 0 0zm.4.8c-.2.1-.3.2-.5.3-.2.1-.4.2-.5.3-.1 0 0 .2.1.1.3 0 .7-.3.9-.7.1.1 0 0 0 0zm.8.7c-.3.3-.4.6-.6.9-.1.1.1.2.1.1.2-.3.5-.6.6-1h-.1zm.9.4c-.1.3-.1.7-.2 1.1 0 .1.1.1.1 0 0-.4.1-.7.1-1.1.1-.1 0-.1 0 0zm1.4.4c-.1-.1-.1-.3-.2-.4 0 0-.1 0-.1.1 0 .2.1.3.2.4.1.2.1.3.2.5 0 .1.1 0 .1 0-.1-.2-.1-.4-.2-.6zm1.2-.2-.3-.3-.3-.3c0-.1-.1 0-.1.1.1.1.2.2.3.4.1 0 .2.2.4.1 0 .1.1.1 0 0zm1-.7c-.1-.1-.3-.2-.5-.3-.2-.1-.3-.2-.5-.3-.1 0-.2.1-.1.1.2.1.3.2.5.3.2.1.3.2.5.2.1.1.1.1.1 0zm.5-1.3c-.1-.1-.3-.1-.4-.1-.2 0-.3-.1-.5-.1-.1 0-.1.1-.1.1.3.1.7.3 1 .2v-.1zm.2-1.7c-.3.1-.8.3-1 .5-.1.1 0 .1.1.1.2-.1.3-.2.5-.2.2-.1.3-.1.5-.2.1-.1 0-.2-.1-.2zm-.8-2-.1-.1s-.1 0-.1.1c0 0-.4.4-.4.5-.1.2-.2.3-.4.5-.1.1.1.1.1.1l.9-.9v-.2zm-1.9-.8c-.1.1-.1.3-.2.5s-.1.4-.2.6c0 .1.1.1.1 0 .1-.2.2-.3.2-.5.1-.2.2-.4.1-.5.1-.1 0-.1 0-.1zm-1.3.8c-.1-.2-.1-.3-.2-.5 0-.2-.1-.3-.1-.4 0-.1-.1 0-.1 0 0 .3.2.7.3 1 0 .1.1 0 .1-.1zm-1.2 0c-.1-.2-.2-.3-.3-.5 0-.1-.1 0-.1 0 .1.2.1.3.2.5.1.1.2.3.3.4.1 0 .1 0 .1-.1 0 0-.1-.2-.2-.3zm-.6.9-.3-.3c-.1-.1-.2-.2-.4-.3-.1-.1-.2 0-.1.1l.3.3c.2.1.3.3.5.2 0 .2 0 .1 0 0zm-.8.8-.9-.3c-.1 0-.1.1 0 .1.3.1.6.3.9.3v-.1z" fill="#000000" stroke-width="none" opacity="1"></path></g></g></g><g id="svga-group-eyesfront-right"><path id="SvgjsPath6646" d="M119 74.4c-6.9 0-12.5 5.6-12.5 12.5s5.6 12.5 12.5 12.5 12.5-5.6 12.5-12.5-5.6-12.5-12.5-12.5zm.2 17.9c-3.5.1-6.3-1.4-7.2-2-.9-.6-3-2.5-3-2.5s1.3-2.1 3.3-3.3c2-1.2 4.3-2 7.5-1.9s5.9 2.3 6.9 3 3.4 2.7 2.8 3.6c-.5.8-6.8 3-10.3 3.1z" fill="#ffffff" stroke-width="none" opacity="1"></path><path id="SvgjsPath6649" d="M133.1 87.9c-.1-.2-.3-.3-.5-.3-1.3.5-2.6.1-2.7.1h-.1c-.2-.3-.5-.6-.8-.9h.6c0 .1.1.1.1.2s.1.1.2.1h.1c.1 0 .1-.1.1-.2.6 0 1.1-.1 1.7-.4.2-.1.3-.3.2-.6-.1-.2-.4-.3-.6-.2-.6.3-1.3.3-2 .3l-1.2-1.2c.8-.2 1.5-.4 1.7-.6s.2-.4 0-.6-.4-.2-.6 0c-.2.2-1 .4-2 .5-3-2.2-6.6-3.3-10.4-2.9-4.9.5-8.3 3.9-8.4 3.9-.1.1-.1.2 0 .3.1.1.2.1.3 0 0 0 3.4-3.3 8.1-3.8 3.6-.4 6.9.6 9.7 2.6-.2 0-.5.1-.7.1-1.3-.9-2.6-1.6-3.8-1.9-3.3-.7-10.3-.5-13.8 5.6-.1.2 0 .5.2.6s.5 0 .6-.2c3.2-5.6 9.8-5.8 12.9-5.1 3 .6 7.1 4.6 7.3 5.5-.9.7-6.4 3.2-11.1 3.1s-8.1-3.7-8.2-3.8c-.2-.2-.4-.2-.6 0s-.2.4 0 .6c.1.2 3.7 3.9 8.8 4h.3c1.9 0 3.8-.4 5.6-.9.3.1.7.4.8.5.1.1.2.2.4.2h.2c.2-.1.3-.4.2-.6-.1-.2-.3-.4-.4-.5.2-.1.5-.2.7-.2l.1.1s1.2.5 1.7 1c.1.1.2.1.3.1s.2 0 .3-.1c.2-.2.1-.4 0-.6-.4-.3-.9-.6-1.3-.8.3-.1.6-.3.9-.4 0 0 .1.1.2.1 0 0 1.5.4 2.4.9.1 0 .1.1.2.1.2 0 .3-.1.4-.2.1-.2 0-.5-.2-.6-.5-.3-1.3-.6-1.8-.7.4-.2.7-.4.9-.6.1-.1.2-.3.2-.7.2 0 .5.1.9.1.5 0 1.1-.1 1.7-.3.1-.2.2-.4.2-.7zm-5.4-3c.4.3.7.6 1.1 1-.5-.1-.8-.2-.8-.2-.3-.2-.6-.5-.9-.7.1 0 .4 0 .6-.1z" fill="#000000" stroke-width="none" opacity="1"></path></g></g></g><g id="svga-group-facehighlight-single"></g><g id="svga-group-eyebrows-left-move" transform="matrix(1,0,0,1,0,0)"><g id="svga-group-eyebrows-left-rotate" transform="matrix(1,1.7453292519943295e-9,-1.7453292519943295e-9,1,1.3121334063725953e-7,-1.391175175058379e-7)"><g id="svga-group-eyebrows-left"><path id="SvgjsPath7533" d="M66.69 76.82c.2-.16 4.99-4.03 7.37-4.29 2.38-.26 16.59 3.49 17.53 4.99.42.68.51 1.21.26 1.59-.21.31-.61.46-1.21.46-.39 0-.88-.06-1.45-.19-.95-.21-3.53-1.13-6.26-2.1-3.68-1.31-7.84-2.79-8.86-2.86-1.43-.11-5.57 2.09-7.04 2.94-.14.08-.32.04-.41-.1a.336.336 0 0 1 .07-.44z" fill="#000000" stroke-width="none" opacity="1"></path></g></g></g><g id="svga-group-eyebrows-right-move" transform="matrix(1,0,0,1,0,0)"><g id="svga-group-eyebrows-right-rotate" transform="matrix(1,1.7453292519943295e-9,-1.7453292519943295e-9,1,1.3123080577770452e-7,-2.0997542549139325e-7)"><g id="svga-group-eyebrows-right"><path id="SvgjsPath7534" d="M133.31 76.82c-.2-.16-4.99-4.03-7.37-4.29-2.38-.26-16.59 3.49-17.53 4.99-.42.68-.51 1.21-.26 1.59.21.31.61.46 1.21.46.39 0 .88-.06 1.45-.19.95-.21 3.53-1.13 6.26-2.1 3.68-1.31 7.84-2.79 8.86-2.86 1.43-.11 5.57 2.09 7.04 2.94.14.08.32.04.41-.1.09-.15.06-.34-.07-.44z" fill="#000000" stroke-width="none" opacity="1"></path></g></g></g><g id="svga-group-nose-single-move" transform="matrix(1,0,0,1,0,0)"><g id="svga-group-nose-single"><path id="SvgjsPath5166" d="M96.5 90.5c-1.9 4.4-3.5 8.8-4.7 13.5-.4 1.6-.7 3.4.9 4.4.7.4 1.4.3 2.2.4 1.4.1 2.1 1.1 3.1 1.9 1.1 1 2.4 1.4 3.7.5.7-.5 1.2-1.4 1.9-1.9.9-.6 2-.4 2.8-1 2.9-2 .3-6.1-1.1-8.2-.4-.5-1.2 0-.8.5.8 1.1 1.5 2.3 2 3.5.3.7.4 1.5.2 2.3-.4 1.2-1.4 1.4-2.4 1.6-1.2.3-1.8 1.1-2.7 2-1.8 1.8-3.1-.5-4.5-1.6-.4-.3-.8-.5-1.4-.6-.8-.1-1.7.1-2.4-.3-1.2-.8-.7-2.3-.5-3.4.2-.9.4-1.8.7-2.7 1-3.6 2.4-7.1 3.9-10.5.1-.5-.7-1-.9-.4z" fill="#000000" stroke-width="none" opacity="1"></path></g></g><g id="svga-group-hair-front"><path id="SvgjsPath10244" d="M120.3 47.2s-13.7 2.7-26.7.6-20 5.8-22.8 12.4-1.5 19.1 2.1 34c3.6 14.9 3 27.6-5.2 38.8s-17.4 18.2-15.8 35.2c1.2 13.1 9.7 18.5 11.8 26.7 2.1 8.2-7.3 15.8-7.3 15.8s4.5-12.1-2.1-19.7c-6.7-7.6-10.9-14-10.9-28.2 0-14.3 9.7-32.8 11.5-43.4s-1.2-39.2-2.7-52.2 2.1-27.9 20-39.5 51.9-10.3 56.8 10.6c0 0 5.8 2.7 9.4 9.1 3.6 6.4 4.6 19.4 3.9 25.2 0 0-3 3-3.3 7-.3 3.9-2.1 7.3-2.1 7.3s-3-4.6-2.4-13.7-2.4-16.7-6.1-20.6-8.1-5.4-8.1-5.4z" fill="#ffffff" stroke-width="none" opacity="1"></path><path id="SvgjsPath10245" d="M139.4 47c-3.2-5.6-7.9-8.5-9.4-9.3-1.8-6.9-6.7-12.2-14.3-15.3-12.9-5.2-31.7-3.3-43.8 4.5C56.3 37 49.4 50.5 51.4 67.3c3 26.1 4 44.5 2.7 51.9-.7 4-2.5 9.2-4.5 14.8-3.3 9.3-7 19.8-7 28.8 0 15 4.8 21.7 11.2 28.9 6.2 7 2 18.6 1.9 18.7l-1.3 3.4 2.8-2.3c.4-.3 9.9-8.1 7.6-16.8-.9-3.4-2.8-6.4-4.9-9.5-2.9-4.4-6.2-9.5-7-17.1-1.2-13.4 4.4-20.4 10.9-28.5 1.5-1.9 3.1-3.9 4.7-6.1 3.7-5.1 6-10.7 7-17 .1-.1.2-.2.2-.5 0-.2 0-.5-.1-.8.8-6.4.2-13.4-1.8-21.4-3.9-15.8-4.6-27.4-2.2-33.4 1.4-3.4 7-14.2 21.7-11.8 12.2 2 24.7-.2 26.8-.6.9.4 4.6 1.9 7.5 5.1 3.1 3.3 6.4 10.5 5.8 19.9-.6 9.3 2.5 14.1 2.6 14.3l.9 1.4.8-1.4c.1-.1 1.9-3.6 2.2-7.7.3-3.5 3-6.3 3.1-6.3l.2-.2v-.3c.9-5.6 0-19.1-3.8-25.8zm-16.1-1.3c5.6-.7 10 2.8 13.1 7.1 1.3 1.9 2.3 4 4.3 5 .8 4.4 1 9.1.9 12.5-6.4-8.1-7.8-21.8-19.5-23.8.4-.3.8-.6 1.2-.8zm17.1 10.4c-1.7-1.3-2.7-3.7-4-5.3-1-1.3-2.1-2.4-3.4-3.4-2.4-1.9-5.1-2.9-8-3 .5-.4 1-.9 1.5-1.4 3.6.3 6.5 2.9 10.1 3.4.4.5.7 1 1 1.6 1.3 2.1 2.2 5 2.8 8.1zm-4.8-11.2c-2.8-.7-5.2-2.5-8-3.1.6-.7 1.1-1.5 1.6-2.3 1 .6 3.8 2.4 6.4 5.4zm-7.4-6.1c-.2.3-.4.7-.7 1 .1-1 .2-2 .1-3 .2.6.4 1.2.6 1.9v.1zm-3-6.9c1.4 3.1 1.7 6.5.8 9.8-.2.1-.2.2-.3.4-.5.5-1.1 1.1-1.7 1.5.1-8.5-4.1-15.8-10.6-20 .5.2 1.1.4 1.6.6 3.3 1.5 7.3 3.8 10.2 7.7zM51.5 134.8c2-5.7 3.9-11 4.6-15.2 1.7-9.7-.6-33.9-2.7-52.5-.5-4.3-.4-8.4.3-12.2-.4 8.2 1.5 16.6 4.1 24.4 4 12 9.7 24.3 6 37.1-1.9 6.8-6.5 12.3-10.1 18.2-3 4.9-5.3 10-7.2 15.3 1.4-5 3.2-10.3 5-15.1zm15.5-2.3c-1.5 2.1-3.1 4.1-4.7 6-6.8 8.4-12.6 15.7-11.3 29.9.8 8.1 4.2 13.4 7.3 18 2 3 3.8 5.8 4.6 8.9 1.2 4.8-1.9 9.5-4.4 12.2.9-4.4 1.4-11.7-3.3-17.1-6.2-7.1-10.7-13.2-10.7-27.6v-1.7c2.3-9.8 5.8-18.9 11.2-27.5 3.5-5.4 7.4-10.6 9.2-16.9 3-10.6-.1-21.1-3.7-31.1-4.4-12.4-8.8-25.9-5.1-38.9 3.2-7 8.7-13 16.7-18.1C80 24 89.7 21.5 99 21.5c2.4 0 4.8.2 7 .5 9.9 2.5 17 11.5 16.5 22.6-.5.3-.9.6-1.4.9-7.7-21.4-35.6-25.5-50.7-9.3-20.9 22.5 0 50.1 3.6 75.2-.1 8.1-2.4 14.9-7 21.1zm5-38c.8 3.3 1.4 6.3 1.7 9.3-5.2-20-17.7-40.4-7.2-59.9 5.2-9.7 15.8-17 27.1-16.8 11.7.3 22.6 7.8 26.5 18.9-.3.1-.5.2-.8.3-1.2.2-3.8.6-7 .9-3.7-12.6-17.1-20-29.6-15.1-5.3 2.1-8.8 5.5-11.2 9.7-1.1 2-1.9 4.2-2.5 6.5-.2.5-.5 2-.5 2.1-1.3 6.7-.9 14.1-.1 20.7.1 6.3 1.4 14.1 3.6 23.4zm-2.1-34.6c-.4 1-.8 2.3-1 3.6-.1-2.5-.2-4.9 0-7.4.1 0 .1-.1.2-.2.9-2 2.7-2.9 4.7-2.3-2.1 2.4-3.3 4.9-3.9 6.3zm4.8-7.3c-2-.8-4.1-.5-5.5 1 .1-1 .5-3 .5-3.1 1.3-6.3 9-7.1 13-3-3.5 1.1-6.1 3-8 5.1zm9.2-5.5c-3.3-3.9-9.3-4.5-12.9-1.5.4-1 .8-2 1.4-2.9.1 0 .1-.1.2-.2 6.6-9.7 20.7-6.2 23.4 4.6-.7-.1-1.4-.2-2.2-.3-3.8-.6-7.1-.4-9.9.3zm13.4.2C95.2 37.5 84.8 33.2 77 37.1c.9-.8 1.8-1.5 2.9-2.1C92 27.7 107 34.3 111 47.4c-3.9.3-8.8.4-13.7-.1zM137 84.6c-.8-2.1-1.8-5.8-1.4-11.2.8 1.4 1.8 2.8 3 3.9-.2.7-.4 1.5-.5 2.4-.1 1.8-.6 3.6-1.1 4.9zm2.1-8.6c-1.7-1.6-2.8-3.6-3.4-5.8-.2-8.4-3.3-14.8-6.4-18.2-1.1-1.2-2.3-2.2-3.5-3 8.1 4.3 9.7 16.3 15.8 23.1v.2c-.5.5-1.7 1.9-2.5 3.7z" fill="#000000" stroke-width="none" opacity="1"></path></g><g id="svga-group-glasses-single-move" transform="matrix(1,0,0,1,0,0)"><g id="svga-group-glasses-single"><path id="SvgjsPath9316" d="M80.93 77.47c-3.14-.04-7.54.66-10.02 3.49-2.48 2.83-2.93 6.38-2.43 10.27.51 3.9 2.23 6.63 5.67 8.8 3.44 2.18 9.06 2.07 10.68 1.47 1.62-.61 5.36-1.42 8.15-6.48 2.78-5.06 1.52-9.06.61-11.03s-4.77-6.41-12.66-6.52z" fill="url(#SvgjsLinearGradient9317)" opacity="1"></path><path id="SvgjsPath9320" d="M118.76 77.47c3.14-.04 7.54.66 10.02 3.49 2.48 2.83 2.93 6.38 2.43 10.27-.51 3.9-2.23 6.63-5.67 8.8-3.44 2.18-9.06 2.07-10.68 1.47-1.62-.61-5.36-1.42-8.15-6.48-2.78-5.06-1.52-9.06-.61-11.03.92-1.96 4.76-6.41 12.66-6.52z" fill="url(#SvgjsLinearGradient9321)" opacity="1"></path><path id="SvgjsPath9324" d="M135.47 79.4s-4.64-.16-7.84-1.44-7.12-1.76-11.27-1.36c-4.16.4-6.59 2.12-7.42 2.61-.96.57-3.15 1.59-5.01 1.32-2.03-.3-3.16-.34-3.16-.34h-1.85s-1.12.03-3.16.34c-1.86.28-4.06-.75-5.01-1.32-.83-.49-3.26-2.22-7.42-2.61-4.16-.4-8.08.08-11.27 1.36-3.2 1.28-7.84 1.44-7.84 1.44-.16.56.08 3.44.08 3.68 0 .24 2.24-.16 2.56 2.56.32 2.72.08 8.72 4 12.63 3.92 3.92 7.62 4.76 11.93 4.43 4.63-.36 8.22-3.23 10.54-6.75 2.32-3.52 3.67-7.81 3.67-9.33 0 0-1.78-.89-1.35-2.26.39-1.22 3.28-1.2 3.28-1.2h1.85s2.89-.02 3.28 1.2c.44 1.37-1.35 2.26-1.35 2.26 0 1.52 1.35 5.81 3.67 9.33 2.32 3.52 5.91 6.39 10.54 6.75 4.31.33 8.01-.51 11.93-4.43s3.68-9.91 4-12.63c.32-2.72 2.56-2.32 2.56-2.56-.02-.25.22-3.12.06-3.68zM90.12 97.87c-2.08 2-6.08 4.16-10.71 3.36-4.64-.8-8.4-3.28-9.83-7.68s-.88-8.96 1.36-11.67c2.24-2.72 5.68-4.08 10.47-3.92 2.32.08 3.92.24 6.96 2s5.44 4.16 5.76 8.32c.31 4.15-1.93 7.59-4.01 9.59zm39.99-4.32c-1.44 4.4-5.2 6.88-9.83 7.68-4.64.8-8.64-1.36-10.71-3.36-2.08-2-4.32-5.44-4-9.59.32-4.16 2.72-6.56 5.76-8.32 3.04-1.76 4.64-1.92 6.96-2 4.79-.17 8.24 1.2 10.47 3.92 2.23 2.71 2.79 7.27 1.35 11.67z" fill="#000000" stroke-width="none" opacity="1"></path></g></g></g></g></g><rect id="svga-credit-rect" width="200" height="15" x="0" y="185" fill="#ecf0f1" opacity="0.5" style="display: none;"></rect><text id="svga-credit-text" font-family="Avenir Next, Roboto, Helvetica, Arial, sans-serif" font-size="10px" text-anchor="start" font-weight="400" size="10px" anchor="start" weight="400" fill="#333333" x="33.42970275878906" y="182.65763401985168" style="display: none;"><tspan id="SvgjsTspan4834" dy="13" x="33.42970275878906">Created on AvatarMaker.com</tspan></text></g><defs id="SvgjsDefs4786"><linearGradient id="SvgjsLinearGradient8588" x1="82.4213" y1="74.4733" x2="82.4213" y2="102.383" gradientUnits="userSpaceOnUse" class="svga-on-canvas-glasses-gradient-single-0-null"><stop id="SvgjsStop8589" stop-opacity="1" stop-color="#ffffff" offset="0.0708" ></stop><stop id="SvgjsStop8590" stop-opacity="0" stop-color="#ffffff" offset="1" ></stop></linearGradient><linearGradient id="SvgjsLinearGradient8592" x1="38.0028" y1="74.4733" x2="38.0028" y2="102.383" gradientTransform="matrix(-1 0 0 1 155.3625 0)" gradientUnits="userSpaceOnUse" class="svga-on-canvas-glasses-gradient-single-1-null"><stop id="SvgjsStop8593" stop-opacity="1" stop-color="#ffffff" offset="0.0708" ></stop><stop id="SvgjsStop8594" stop-opacity="0" stop-color="#ffffff" offset="1" ></stop></linearGradient><linearGradient id="SvgjsLinearGradient8659" x1="82.4213" y1="74.4733" x2="82.4213" y2="102.383" gradientUnits="userSpaceOnUse" class="svga-on-canvas-glasses-gradient-single-0-null"><stop id="SvgjsStop8660" stop-opacity="1" stop-color="#ffffff" offset="0.0708" ></stop><stop id="SvgjsStop8661" stop-opacity="0" stop-color="#ffffff" offset="1" ></stop></linearGradient><linearGradient id="SvgjsLinearGradient8663" x1="38.0028" y1="74.4733" x2="38.0028" y2="102.383" gradientTransform="matrix(-1 0 0 1 155.3625 0)" gradientUnits="userSpaceOnUse" class="svga-on-canvas-glasses-gradient-single-1-null"><stop id="SvgjsStop8664" stop-opacity="1" stop-color="#ffffff" offset="0.0708" ></stop><stop id="SvgjsStop8665" stop-opacity="0" stop-color="#ffffff" offset="1" ></stop></linearGradient><linearGradient id="SvgjsLinearGradient8730" x1="81.258" y1="79.0018" x2="81.258" y2="98.9856" gradientUnits="userSpaceOnUse" class="svga-on-canvas-glasses-gradient-single-0-null"><stop id="SvgjsStop8731" stop-opacity="1" stop-color="#ffffff" offset="0.0708" ></stop><stop id="SvgjsStop8732" stop-opacity="0" stop-color="#ffffff" offset="1" ></stop></linearGradient><linearGradient id="SvgjsLinearGradient8734" x1="37.2155" y1="79.0018" x2="37.2155" y2="98.9856" gradientTransform="matrix(-1 0 0 1 155.4348 0)" gradientUnits="userSpaceOnUse" class="svga-on-canvas-glasses-gradient-single-1-null"><stop id="SvgjsStop8735" stop-opacity="1" stop-color="#ffffff" offset="0.0708" ></stop><stop id="SvgjsStop8736" stop-opacity="0" stop-color="#ffffff" offset="1" ></stop></linearGradient><linearGradient id="SvgjsLinearGradient8792" x1="81.4811" y1="77.4731" x2="81.4811" y2="101.8875" gradientUnits="userSpaceOnUse" class="svga-on-canvas-glasses-gradient-single-0-null"><stop id="SvgjsStop8793" stop-opacity="1" stop-color="#ffffff" offset="0.0708" ></stop><stop id="SvgjsStop8794" stop-opacity="0" stop-color="#ffffff" offset="1" ></stop></linearGradient><linearGradient id="SvgjsLinearGradient8796" x1="38.4811" y1="77.4731" x2="38.4811" y2="101.8875" gradientTransform="matrix(-1 0 0 1 156.6823 0)" gradientUnits="userSpaceOnUse" class="svga-on-canvas-glasses-gradient-single-1-null"><stop id="SvgjsStop8797" stop-opacity="1" stop-color="#ffffff" offset="0.0708" ></stop><stop id="SvgjsStop8798" stop-opacity="0" stop-color="#ffffff" offset="1" ></stop></linearGradient><linearGradient id="SvgjsLinearGradient8851" x1="81.4438" y1="79.8911" x2="81.4438" y2="97.9183" gradientUnits="userSpaceOnUse" class="svga-on-canvas-glasses-gradient-single-0-null"><stop id="SvgjsStop8852" stop-opacity="1" stop-color="#ffffff" offset="0.0708" ></stop><stop id="SvgjsStop8853" stop-opacity="0" stop-color="#ffffff" offset="1" ></stop></linearGradient><linearGradient id="SvgjsLinearGradient8855" x1="38.2938" y1="79.8911" x2="38.2938" y2="97.9183" gradientTransform="matrix(-1 0 0 1 156.7 0)" gradientUnits="userSpaceOnUse" class="svga-on-canvas-glasses-gradient-single-1-null"><stop id="SvgjsStop8856" stop-opacity="1" stop-color="#ffffff" offset="0.0708" ></stop><stop id="SvgjsStop8857" stop-opacity="0" stop-color="#ffffff" offset="1" ></stop></linearGradient><linearGradient id="SvgjsLinearGradient8906" x1="79.8873" y1="77.8893" x2="79.8873" y2="103.4741" gradientUnits="userSpaceOnUse" class="svga-on-canvas-glasses-gradient-single-0-null"><stop id="SvgjsStop8907" stop-opacity="1" stop-color="#ffffff" offset="0.0708" ></stop><stop id="SvgjsStop8908" stop-opacity="0" stop-color="#ffffff" offset="1" ></stop></linearGradient><linearGradient id="SvgjsLinearGradient8910" x1="34.1696" y1="77.8893" x2="34.1696" y2="103.4741" gradientTransform="matrix(-1 0 0 1 154.0177 0)" gradientUnits="userSpaceOnUse" class="svga-on-canvas-glasses-gradient-single-1-null"><stop id="SvgjsStop8911" stop-opacity="1" stop-color="#ffffff" offset="0.0708" ></stop><stop id="SvgjsStop8912" stop-opacity="0" stop-color="#ffffff" offset="1" ></stop></linearGradient><linearGradient id="SvgjsLinearGradient9008" x1="82.5167" y1="78.7186" x2="82.5167" y2="100.0816" gradientUnits="userSpaceOnUse" class="svga-on-canvas-glasses-gradient-single-0-null"><stop id="SvgjsStop9009" stop-opacity="1" stop-color="#ffffff" offset="0.0708" ></stop><stop id="SvgjsStop9010" stop-opacity="0" stop-color="#ffffff" offset="1" ></stop></linearGradient><linearGradient id="SvgjsLinearGradient9012" x1="41.5167" y1="78.7186" x2="41.5167" y2="100.0816" gradientTransform="matrix(-1 0 0 1 158.5026 0)" gradientUnits="userSpaceOnUse" class="svga-on-canvas-glasses-gradient-single-1-null"><stop id="SvgjsStop9013" stop-opacity="1" stop-color="#ffffff" offset="0.0708" ></stop><stop id="SvgjsStop9014" stop-opacity="0" stop-color="#ffffff" offset="1" ></stop></linearGradient><linearGradient id="SvgjsLinearGradient9055" x1="82.4213" y1="74.4733" x2="82.4213" y2="102.383" gradientUnits="userSpaceOnUse" class="svga-on-canvas-glasses-gradient-single-0-null"><stop id="SvgjsStop9056" stop-opacity="1" stop-color="#ffffff" offset="0.0708" ></stop><stop id="SvgjsStop9057" stop-opacity="0" stop-color="#ffffff" offset="1" ></stop></linearGradient><linearGradient id="SvgjsLinearGradient9059" x1="38.0028" y1="74.4733" x2="38.0028" y2="102.383" gradientTransform="matrix(-1 0 0 1 155.3625 0)" gradientUnits="userSpaceOnUse" class="svga-on-canvas-glasses-gradient-single-1-null"><stop id="SvgjsStop9060" stop-opacity="1" stop-color="#ffffff" offset="0.0708" ></stop><stop id="SvgjsStop9061" stop-opacity="0" stop-color="#ffffff" offset="1" ></stop></linearGradient><linearGradient id="SvgjsLinearGradient9126" x1="81.258" y1="79.0018" x2="81.258" y2="98.9856" gradientUnits="userSpaceOnUse" class="svga-on-canvas-glasses-gradient-single-0-null"><stop id="SvgjsStop9127" stop-opacity="1" stop-color="#ffffff" offset="0.0708" ></stop><stop id="SvgjsStop9128" stop-opacity="0" stop-color="#ffffff" offset="1" ></stop></linearGradient><linearGradient id="SvgjsLinearGradient9130" x1="37.2155" y1="79.0018" x2="37.2155" y2="98.9856" gradientTransform="matrix(-1 0 0 1 155.4348 0)" gradientUnits="userSpaceOnUse" class="svga-on-canvas-glasses-gradient-single-1-null"><stop id="SvgjsStop9131" stop-opacity="1" stop-color="#ffffff" offset="0.0708" ></stop><stop id="SvgjsStop9132" stop-opacity="0" stop-color="#ffffff" offset="1" ></stop></linearGradient><linearGradient id="SvgjsLinearGradient9188" x1="82.0363" y1="123.8455" x2="82.0363" y2="100.9533" gradientTransform="matrix(1 0 0 -1 0 202)" gradientUnits="userSpaceOnUse" class="svga-on-canvas-glasses-gradient-single-0-null"><stop id="SvgjsStop9189" stop-opacity="1" stop-color="#000000" offset="0" ></stop><stop id="SvgjsStop9190" stop-opacity="0" stop-color="#000000" offset="1" ></stop></linearGradient><linearGradient id="SvgjsLinearGradient9192" x1="117.8737" y1="123.8455" x2="117.8737" y2="100.9533" gradientTransform="matrix(1 0 0 -1 0 202)" gradientUnits="userSpaceOnUse" class="svga-on-canvas-glasses-gradient-single-1-null"><stop id="SvgjsStop9193" stop-opacity="1" stop-color="#000000" offset="0" ></stop><stop id="SvgjsStop9194" stop-opacity="0" stop-color="#000000" offset="1" ></stop></linearGradient><linearGradient id="SvgjsLinearGradient9262" x1="81.4438" y1="79.8911" x2="81.4438" y2="97.9183" gradientUnits="userSpaceOnUse" class="svga-on-canvas-glasses-gradient-single-0-null"><stop id="SvgjsStop9263" stop-opacity="1" stop-color="#ffffff" offset="0.0708" ></stop><stop id="SvgjsStop9264" stop-opacity="0" stop-color="#ffffff" offset="1" ></stop></linearGradient><linearGradient id="SvgjsLinearGradient9266" x1="38.2938" y1="79.8911" x2="38.2938" y2="97.9183" gradientTransform="matrix(-1 0 0 1 156.7 0)" gradientUnits="userSpaceOnUse" class="svga-on-canvas-glasses-gradient-single-1-null"><stop id="SvgjsStop9267" stop-opacity="1" stop-color="#ffffff" offset="0.0708" ></stop><stop id="SvgjsStop9268" stop-opacity="0" stop-color="#ffffff" offset="1" ></stop></linearGradient><linearGradient id="SvgjsLinearGradient9317" x1="81.4811" y1="77.4731" x2="81.4811" y2="101.8875" gradientUnits="userSpaceOnUse" class="svga-on-canvas-glasses-gradient-single-0-null"><stop id="SvgjsStop9318" stop-opacity="1" stop-color="#ffffff" offset="0.0708" ></stop><stop id="SvgjsStop9319" stop-opacity="0" stop-color="#ffffff" offset="1" ></stop></linearGradient><linearGradient id="SvgjsLinearGradient9321" x1="38.4811" y1="77.4731" x2="38.4811" y2="101.8875" gradientTransform="matrix(-1 0 0 1 156.6823 0)" gradientUnits="userSpaceOnUse" class="svga-on-canvas-glasses-gradient-single-1-null"><stop id="SvgjsStop9322" stop-opacity="1" stop-color="#ffffff" offset="0.0708" ></stop><stop id="SvgjsStop9323" stop-opacity="0" stop-color="#ffffff" offset="1" ></stop></linearGradient></defs></svg>